<svg xmlns="http://www.w3.org/2000/svg" viewBox="0 0 137.67 20.09"><defs><style>.cls-1{fill:#fff;}.cls-2{fill:#c1272d;}.cls-3{fill:#caaa78;}.cls-4{fill:#efefef;}.cls-5{fill:#c41732;}</style></defs><title>Recurso 1</title><g id="Capa_2" data-name="Capa 2"><g id="Capa_1-2" data-name="Capa 1"><path class="cls-1" d="M76.68,14.28a4.81,4.81,0,0,1-1.25-3.46,4.83,4.83,0,0,1,1.25-3.47,4.66,4.66,0,0,1,6.52,0,4.83,4.83,0,0,1,1.25,3.47,4.81,4.81,0,0,1-1.25,3.46,4.66,4.66,0,0,1-6.52,0ZM76,10.82a4.32,4.32,0,0,0,1.08,3.08,4.18,4.18,0,0,0,5.76,0,4.32,4.32,0,0,0,1.08-3.08,4.33,4.33,0,0,0-1.08-3.08,4.14,4.14,0,0,0-5.75,0A4.3,4.3,0,0,0,76,10.82Z"/><path class="cls-2" d="M94.26,14.87h1.28a.24.24,0,0,0,.28-.28V7a.24.24,0,0,0-.28-.28H94.26c-.19,0-.28-.09-.28-.27a.24.24,0,0,1,.28-.28H96.1c.18,0,.27.09.27.28v1a.37.37,0,0,0,.08.26s.12,0,.22-.08A4.35,4.35,0,0,1,100,6a3.57,3.57,0,0,1,2.64,1,3.74,3.74,0,0,1,1,2.74v4.88a.24.24,0,0,0,.28.28h1.29c.18,0,.27.09.27.28a.24.24,0,0,1-.27.27h-3.5c-.19,0-.28-.09-.28-.27a.24.24,0,0,1,.28-.28h1.1a.24.24,0,0,0,.28-.28V9.71a3.13,3.13,0,0,0-.81-2.35A3.09,3.09,0,0,0,100,6.58a3.72,3.72,0,0,0-2.64,1.25,6.13,6.13,0,0,0-1,1.24v5.52a.25.25,0,0,0,.28.28h1.11c.18,0,.27.09.27.28a.24.24,0,0,1-.27.27h-3.5c-.19,0-.28-.09-.28-.27A.24.24,0,0,1,94.26,14.87Z"/><path class="cls-2" d="M106,15.15a.25.25,0,0,1,.28-.28h1.29a.24.24,0,0,0,.28-.28V3.35c0-.18-.09-.27-.28-.27h-1.29A.25.25,0,0,1,106,2.8a.25.25,0,0,1,.28-.28h1.84a.25.25,0,0,1,.28.28V14.59a.24.24,0,0,0,.28.28h1.29c.18,0,.27.09.27.28a.24.24,0,0,1-.27.27h-3.69A.25.25,0,0,1,106,15.15Z"/><path class="cls-2" d="M111.25,15.15c0-.19.09-.28.27-.28h1.29a.24.24,0,0,0,.28-.28V7a.24.24,0,0,0-.28-.28h-1.29a.24.24,0,0,1-.27-.27c0-.19.09-.28.27-.28h1.84a.24.24,0,0,1,.28.28v8.1a.24.24,0,0,0,.28.28h1.29c.18,0,.27.09.27.28a.24.24,0,0,1-.27.27h-3.69A.24.24,0,0,1,111.25,15.15Zm1.5-10.63a.7.7,0,0,1-.21-.52.72.72,0,0,1,.21-.53.7.7,0,0,1,.52-.21A.72.72,0,0,1,114,4a.7.7,0,0,1-.21.52.72.72,0,0,1-.53.21A.7.7,0,0,1,112.75,4.52Z"/><path class="cls-2" d="M116.77,14.87h1.29a.24.24,0,0,0,.28-.28V7a.24.24,0,0,0-.28-.28h-1.29a.24.24,0,0,1-.27-.27c0-.19.09-.28.27-.28h1.85c.18,0,.27.09.27.28v1a.37.37,0,0,0,.08.26s.12,0,.22-.08A4.35,4.35,0,0,1,122.49,6a3.57,3.57,0,0,1,2.64,1,3.74,3.74,0,0,1,1,2.74v4.88a.24.24,0,0,0,.28.28h1.29c.18,0,.27.09.27.28a.24.24,0,0,1-.27.27h-3.5c-.19,0-.28-.09-.28-.27a.24.24,0,0,1,.28-.28h1.1a.24.24,0,0,0,.28-.28V9.71a3.13,3.13,0,0,0-.81-2.35,3.09,3.09,0,0,0-2.23-.78,3.72,3.72,0,0,0-2.64,1.25,6.13,6.13,0,0,0-1,1.24v5.52a.25.25,0,0,0,.28.28h1.11c.18,0,.27.09.27.28a.24.24,0,0,1-.27.27h-3.51a.24.24,0,0,1-.27-.27C116.5,15,116.59,14.87,116.77,14.87Z"/><path class="cls-2" d="M133.34,15.05a4.76,4.76,0,0,0,1.26-.14,3.94,3.94,0,0,0,.94-.34,3.62,3.62,0,0,0,.68-.43,6.17,6.17,0,0,0,.49-.41c.09-.08.16-.1.22-.07a.62.62,0,0,1,.19.14c.12.15.12.28,0,.39s-.35.3-.58.47a5,5,0,0,1-1.83.81,6.15,6.15,0,0,1-1.35.14,4,4,0,0,1-3.13-1.33,5,5,0,0,1-1.2-3.46,5.07,5.07,0,0,1,1.2-3.47A4,4,0,0,1,133.34,6a4.24,4.24,0,0,1,3.12,1.22,4,4,0,0,1,1.21,2.93v.28a.48.48,0,0,1-.55.55h-7.26c-.21,0-.3.09-.28.28a4.34,4.34,0,0,0,1,2.63A3.54,3.54,0,0,0,133.34,15.05Zm-3.74-4.88c0,.18.06.28.26.28h7a.25.25,0,0,0,.28-.28A3.36,3.36,0,0,0,136,7.65a3.62,3.62,0,0,0-2.69-1.07,3.47,3.47,0,0,0-2.73,1.18A4.21,4.21,0,0,0,129.6,10.17Z"/><circle class="cls-3" cx="83.5" cy="10.03" r="8.91"/><path class="cls-4" d="M81.09,14.41c0-1.17,0-2.34,0-3.51a7,7,0,0,1,.23-1.51c.13-.52.36-1,.54-1.53a13.74,13.74,0,0,0,.81-4.36c0-.43,0-.87,0-1.3,0-.2-.06-.4-.06-.59a.88.88,0,0,1,.08-.39.24.24,0,0,1,.18-.1h1.19c.12,0,.18.06.21.19a1.24,1.24,0,0,1,0,.74,1,1,0,0,0,0,.35,14.22,14.22,0,0,0,.36,3.79c.23.86.49,1.72.8,2.55a7.22,7.22,0,0,1,.47,2.47c0,2.26,0,4.51,0,6.77a1.78,1.78,0,0,1-.08.45.65.65,0,0,1-.65.5h-.07l-.79-.24-.28-.1a.53.53,0,0,1-.36-.53c0-1.07,0-2.14,0-3.21a1.38,1.38,0,0,1,.61-1.21l.51-.39a1.3,1.3,0,0,0,.56-1.17c0-.59-.13-1.17-.22-1.75-.06-.37-.17-.73-.23-1.1a.21.21,0,0,0-.25-.2H82.42c-.27,0-.28,0-.33.26-.15.78-.3,1.56-.42,2.34a2.89,2.89,0,0,0,0,.83,1.16,1.16,0,0,0,.46.75l.66.5a1.25,1.25,0,0,1,.5,1c0,1.17,0,2.33,0,3.5,0,.24-.16.34-.34.41s-.4.11-.6.18a4.19,4.19,0,0,0-.46.16.75.75,0,0,1-.73-.33,1.91,1.91,0,0,1-.14-.67c0-1.16,0-2.33,0-3.5Z"/><path class="cls-4" d="M81.84,12.16h3.31a1.55,1.55,0,0,1-.8,1.17,1.51,1.51,0,0,1-1.48.11A1.59,1.59,0,0,1,81.84,12.16Z"/><path class="cls-5" d="M16.57,18A9.55,9.55,0,0,1,10,20.09,9.62,9.62,0,0,1,2.9,17.16,9.8,9.8,0,0,1,0,10,9.81,9.81,0,0,1,10,0a10.06,10.06,0,0,1,6.56,2V5.09A9.68,9.68,0,0,0,10,2.73a7,7,0,0,0-5.16,2.1A7.15,7.15,0,0,0,2.79,10a7,7,0,0,0,2.08,5.16A6.92,6.92,0,0,0,10,17.28a9.74,9.74,0,0,0,6.56-2.55Z"/><path class="cls-5" d="M33.51,19.82H30.6l-1.42-4H21.36l-1.5,4h-2.8L24.38.11h1.78Zm-5.32-6.53L25.28,5.4l-2.94,7.89Z"/><path class="cls-5" d="M46.59.11,39.27,19.82H37.16L29.86.11h3l5.42,14.57L43.65.11Z"/><path class="cls-5" d="M59.53,19.82H56.62l-1.42-4H47.38l-1.5,4h-2.8L50.4.11h1.78Zm-5.32-6.53L51.3,5.4l-2.93,7.89Z"/><path class="cls-5" d="M71.78,14.32a5.39,5.39,0,0,1-1.64,4.11A5.9,5.9,0,0,1,65.93,20a7.9,7.9,0,0,1-3.44-.74A6.53,6.53,0,0,1,59.81,17l2-1.94a4.43,4.43,0,0,0,4,2.16A3.34,3.34,0,0,0,68,16.36a2.58,2.58,0,0,0,.95-2,3.44,3.44,0,0,0-2.13-3l-4-2a4.87,4.87,0,0,1-2.13-4.18,4.81,4.81,0,0,1,1.54-3.66A5.31,5.31,0,0,1,66.07,0a6.68,6.68,0,0,1,4.75,1.72L69,3.88a4,4,0,0,0-3-1.06,2.61,2.61,0,0,0-1.78.6,2.07,2.07,0,0,0-.76,1.69c0,.95.71,1.8,2.13,2.54q3.6,1.89,4,2.19A5.4,5.4,0,0,1,71.78,14.32Z"/></g></g></svg>